<?xml version="1.0" encoding="UTF-8"?> <!-- Generator: Adobe Illustrator 23.0.2, SVG Export Plug-In . SVG Version: 6.00 Build 0) --> <svg xmlns="http://www.w3.org/2000/svg" xmlns:xlink="http://www.w3.org/1999/xlink" id="Layer_1" x="0px" y="0px" viewBox="0 0 100 100" style="enable-background:new 0 0 100 100;" xml:space="preserve"> <style type="text/css"> .st0{fill:none;stroke:#326A34;stroke-width:1.5;stroke-miterlimit:10;} </style> <g> <path class="st0" d="M92.77,41.63l-8.03-0.96c-0.82-3.06-2.02-5.96-3.57-8.64l4.99-6.35c0.76-0.98,0.68-2.48-0.21-3.36l-8.28-8.28 c-0.87-0.87-2.38-0.97-3.36-0.21l-6.36,5c-2.67-1.55-5.57-2.75-8.63-3.56l-0.96-8.03C58.22,6,57.09,5,55.85,5H44.14 c-1.24,0-2.37,1-2.52,2.23l-0.96,8.03c-3.06,0.82-5.96,2.02-8.63,3.57l-6.35-4.99c-0.97-0.76-2.48-0.67-3.36,0.2l-8.28,8.28 c-0.87,0.87-0.96,2.38-0.19,3.36l4.99,6.35c-1.55,2.68-2.75,5.58-3.57,8.64l-8.03,0.96C6.01,41.78,5,42.91,5,44.16v11.71 c0,1.24,1,2.37,2.24,2.52l8.03,0.96c0.82,3.05,2.02,5.95,3.57,8.63l-4.99,6.36c-0.76,0.98-0.67,2.48,0.21,3.36l8.27,8.28 c0.87,0.87,2.39,0.97,3.36,0.21l6.36-5c2.68,1.55,5.57,2.75,8.63,3.57l0.96,8.03C41.78,94,42.91,95,44.15,95h11.71 c1.24,0,2.37-1,2.52-2.23l0.96-8.03c3.06-0.82,5.96-2.02,8.63-3.57l6.36,4.99c0.98,0.76,2.48,0.67,3.36-0.2l8.28-8.28 c0.88-0.87,0.97-2.38,0.2-3.37l-5-6.35c1.55-2.68,2.75-5.57,3.57-8.63l8.03-0.96C94,58.22,95,57.1,95,55.86V44.15 C95,42.9,94,41.78,92.77,41.63z M50,72.5c-12.43,0-22.5-10.07-22.5-22.5S37.58,27.5,50,27.5S72.5,37.57,72.5,50S62.43,72.5,50,72.5 z"></path> </g> </svg> 