<?xml version="1.0" encoding="UTF-8"?> <!-- Generator: Adobe Illustrator 23.0.2, SVG Export Plug-In . SVG Version: 6.00 Build 0) --> <svg xmlns="http://www.w3.org/2000/svg" xmlns:xlink="http://www.w3.org/1999/xlink" id="Layer_1" x="0px" y="0px" viewBox="0 0 100 100" style="enable-background:new 0 0 100 100;" xml:space="preserve"> <style type="text/css"> .st0{fill:none;} .st1{fill:#326A34;} .st2{fill:none;stroke:#326A34;stroke-width:1.5;stroke-miterlimit:10;} </style> <path class="st0" d="M50,54.8c-6,0-9.2-2.7-10.2-3.7C19.8,54.8,17,60.5,16.6,80.7c0,0.7,0,1.2-0.1,1.5c0,0,0,0,0,0l0,0c0,0,0,0,0,0 h0v2c0.7,1.2,7.1,9.6,33.5,9.6c26.4,0,32.7-8.4,33.5-9.6l0-1.4l0,0c0,0,0-0.1,0-0.1c0-0.3,0-0.7,0-1.3c-2.4,1.3-5.1,2-8,2 c-9.3,0-16.8-7.5-16.8-16.8c0-5.9,3.1-11.2,7.8-14.1c-1.8-0.5-3.9-0.9-6.2-1.3C59.2,52.1,56,54.8,50,54.8z"></path> <path class="st0" d="M50,47.9c9.6,0,17.4-9.5,17.4-21.3c0-12.8-3-21.3-17.4-21.3s-17.4,8.5-17.4,21.3C32.6,38.3,40.4,47.9,50,47.9z"></path> <path class="st1" d="M50,49.4c10.4,0,18.9-10.2,18.9-22.8c0-11.3-2.2-22.8-18.9-22.8c-16.6,0-18.9,11.5-18.9,22.8 C31.1,39.2,39.6,49.4,50,49.4z M50,5.4c14.4,0,17.4,8.5,17.4,21.3c0,11.7-7.8,21.3-17.4,21.3s-17.4-9.5-17.4-21.3 C32.6,13.8,35.6,5.4,50,5.4z"></path> <path class="st1" d="M15.2,82.2l-0.1,0c0-0.1,0-0.2,0-0.6c0,0.2,0,0.4,0,0.6v0H15.2z"></path> <path class="st1" d="M16.5,82.2C16.5,82.2,16.5,82.2,16.5,82.2L16.5,82.2C16.5,82.2,16.5,82.2,16.5,82.2z"></path> <path class="st1" d="M83.5,82.8L83.5,82.8c0,0,0-0.1,0-0.1C83.5,82.7,83.5,82.7,83.5,82.8L83.5,82.8z"></path> <path class="st1" d="M84.4,82.8H85v0c0-0.4,0-0.7,0-0.9c0,0.5,0,0.8,0,0.8L84.4,82.8z"></path> <path class="st1" d="M84.2,82.8L84.2,82.8L84.2,82.8l-0.7,0l0,1.4c-0.8,1.2-7.1,9.6-33.5,9.6c-26.4,0-32.7-8.5-33.5-9.6v-2h0 c0,0,0,0,0,0l-0.7,0l0,0.4l0-0.4l-0.7,0c0,0,0,0,0,0v2.4l0.1,0.2c0.2,0.4,5.6,10.6,34.9,10.6c29.3,0,34.7-10.1,34.9-10.6l0.1-0.2 v-1.8c0,0,0,0,0,0L84.2,82.8z"></path> <path class="st1" d="M83.5,82.7c0-0.1,0-0.3,0-0.4c0-0.1,0-0.1,0-0.1h0c0-0.4,0.1-0.5,0.4-0.7l0.4-0.2l0.4,0.2 c0.2,0.1,0.3,0.3,0.3,0.4c0-0.2,0-0.4,0-0.6c0-0.3,0-0.6,0-0.9c-0.5,0.3-1,0.6-1.5,0.9C83.4,81.9,83.4,82.3,83.5,82.7z"></path> <path class="st1" d="M15.4,81.2l0.4-0.2l0.4,0.2c0.3,0.2,0.4,0.4,0.4,0.7h0c0,0,0,0,0,0.1c0,0.1,0,0.2,0,0.2c0-0.4,0-0.8,0.1-1.5 c0.4-20.2,3.2-25.9,23.2-29.5c1,1,4.2,3.7,10.2,3.7c6,0,9.2-2.7,10.2-3.7c2.3,0.4,4.3,0.9,6.2,1.3c0.6-0.4,1.2-0.7,1.9-1 c-2.4-0.7-5.1-1.3-8.2-1.9l-0.4-0.1l-0.3,0.4c0,0-2.8,3.5-9.3,3.5c-6.5,0-9.2-3.4-9.3-3.5l-0.3-0.4l-0.4,0.1 c-21.3,3.9-24.5,10.1-24.9,31.1c0,0.4,0,0.8,0,1C15.1,81.5,15.2,81.3,15.4,81.2z"></path> <path class="st1" d="M15.8,82.2l0.7,0c0,0,0,0,0,0c0-0.1,0-0.2,0-0.2c0,0,0,0,0-0.1h0c0-0.3-0.1-0.5-0.4-0.7L15.7,81l-0.4,0.2 c-0.2,0.1-0.3,0.3-0.3,0.4c0,0.4,0,0.5,0,0.6l0.1,0H15v0c0,0,0,0,0,0L15.8,82.2z"></path> <path class="st1" d="M84.6,81.5l-0.4-0.2l-0.4,0.2c-0.3,0.2-0.4,0.3-0.4,0.7h0c0,0,0,0.1,0,0.1c0,0.1,0,0.2,0,0.4c0,0,0,0.1,0,0.1 l0,0l0.7,0l0.7,0c0,0,0,0,0,0v0h-0.6l0.6,0c0-0.1,0-0.3,0-0.8C84.9,81.7,84.8,81.6,84.6,81.5z"></path> <circle class="st2" cx="75.4" cy="66.6" r="16.8"></circle> <g> <path class="st1" d="M77.7,78.3c-0.7,0-1.4-0.3-2-0.8L66,67.7c-0.5-0.5-0.8-1.2-0.8-2s0.3-1.4,0.8-2c0.5-0.5,1.2-0.8,2-0.8 s1.4,0.3,2,0.8l7.4,7.4l17.4-25.9c0.5-0.8,1.4-1.2,2.3-1.2c0.6,0,1.1,0.2,1.6,0.5c1.3,0.9,1.6,2.6,0.8,3.9L80,77.1 c-0.5,0.7-1.2,1.1-2.1,1.2C77.9,78.3,77.8,78.3,77.7,78.3z"></path> </g> </svg> 