<?xml version="1.0" encoding="UTF-8"?> <!-- Generator: Adobe Illustrator 23.0.2, SVG Export Plug-In . SVG Version: 6.00 Build 0) --> <svg xmlns="http://www.w3.org/2000/svg" xmlns:xlink="http://www.w3.org/1999/xlink" id="Layer_1" x="0px" y="0px" viewBox="0 0 100 100" style="enable-background:new 0 0 100 100;" xml:space="preserve"> <style type="text/css"> .st0{fill:none;stroke:#326A34;stroke-width:1.5;stroke-miterlimit:10;} </style> <g> <path class="st0" d="M84.49,57.6c-6.65-1.56-15.16-5.63-18.24-10.69c-1.73-2.81-1.91-5.99-0.51-8.7c0.08-0.15,0.21-0.37,0.31-0.54 c0.44-0.88,0.66-1.17,1.19-2.42c0.03-0.07,0.03-0.08,0.06-0.13H32.4c0.02,0.04,0.02,0.04,0.04,0.09c0,0,0,0,0,0.01 c0.77,1.2,1.44,2.27,1.79,2.96c1.42,2.75,1.23,5.92-0.49,8.74c-3.09,5.06-11.59,9.13-18.25,10.69l-1.84,30.85 c-0.2,3.38,2.02,6.15,4.93,6.15h62.82c2.91,0,5.13-2.77,4.92-6.15L84.49,57.6z M39.78,85.75h-5.3c-0.98,0-1.77-1.48-1.77-3.29 c0-1.81,0.79-3.29,1.77-3.29h5.3c0.97,0,1.77,1.48,1.77,3.29C41.55,84.27,40.76,85.75,39.78,85.75z M39.78,73.21h-5.3 c-0.98,0-1.77-1.47-1.77-3.29c0-1.83,0.79-3.29,1.77-3.29h5.3c0.97,0,1.77,1.46,1.77,3.29C41.55,71.73,40.76,73.21,39.78,73.21z M39.78,60.66h-5.3c-0.98,0-1.77-1.47-1.77-3.29c0-1.81,0.79-3.29,1.77-3.29h5.3c0.97,0,1.77,1.48,1.77,3.29 C41.55,59.18,40.76,60.66,39.78,60.66z M51.67,85.75h-5.3c-0.98,0-1.77-1.48-1.77-3.29c0-1.81,0.79-3.29,1.77-3.29h5.3 c0.97,0,1.77,1.48,1.77,3.29C53.43,84.27,52.64,85.75,51.67,85.75z M51.67,73.21h-5.3c-0.98,0-1.77-1.47-1.77-3.29 c0-1.83,0.79-3.29,1.77-3.29h5.3c0.97,0,1.77,1.46,1.77,3.29C53.43,71.73,52.64,73.21,51.67,73.21z M51.67,60.66h-5.3 c-0.98,0-1.77-1.47-1.77-3.29c0-1.81,0.79-3.29,1.77-3.29h5.3c0.97,0,1.77,1.48,1.77,3.29C53.43,59.18,52.64,60.66,51.67,60.66z M63.55,85.75h-5.3c-0.97,0-1.77-1.48-1.77-3.29c0-1.81,0.79-3.29,1.77-3.29h5.3c0.98,0,1.77,1.48,1.77,3.29 C65.32,84.27,64.53,85.75,63.55,85.75z M63.55,73.21h-5.3c-0.97,0-1.77-1.47-1.77-3.29c0-1.83,0.79-3.29,1.77-3.29h5.3 c0.98,0,1.77,1.46,1.77,3.29C65.32,71.73,64.53,73.21,63.55,73.21z M63.55,60.66h-5.3c-0.97,0-1.77-1.47-1.77-3.29 c0-1.81,0.79-3.29,1.77-3.29h5.3c0.98,0,1.77,1.48,1.77,3.29C65.32,59.18,64.53,60.66,63.55,60.66z M98.92,39.79 c-0.12,0.62-0.13,1.26-0.37,1.85c-1.42,3.44-4.09,6.29-6.05,9.45c-2.53,4.05-24.05-4.67-21.28-10.07c1.04-2,5.12-7.51,5.42-9.73 c0.28-1.98-2.34-3.53-4.76-3.72c-6.39-0.52-14.54-0.05-21.32-0.01v0.01c-0.18,0-0.38,0-0.57,0c-0.18,0-0.38,0-0.56,0v-0.01 c-6.78-0.04-14.93-0.51-21.32,0.01c-2.42,0.2-5.04,1.75-4.76,3.72c0.31,2.22,4.38,7.73,5.42,9.73c2.78,5.4-18.74,14.12-21.27,10.07 c-1.97-3.17-4.63-6.02-6.05-9.45c-0.24-0.59-0.25-1.23-0.37-1.85c-3.16-14.1,9.01-28.49,27.32-29.97 c6.99-0.57,14.01-0.89,21.03-1.01V8.77c0.19,0,0.37,0.01,0.56,0.02c0.19,0,0.37-0.01,0.57-0.02v0.03 c7.01,0.13,14.03,0.45,21.03,1.01C89.91,11.3,102.07,25.69,98.92,39.79z"></path> </g> </svg> 