<?xml version="1.0" encoding="UTF-8"?> <!-- Generator: Adobe Illustrator 23.0.2, SVG Export Plug-In . SVG Version: 6.00 Build 0) --> <svg xmlns="http://www.w3.org/2000/svg" xmlns:xlink="http://www.w3.org/1999/xlink" id="Layer_1" x="0px" y="0px" viewBox="0 0 100 100" style="enable-background:new 0 0 100 100;" xml:space="preserve"> <style type="text/css"> .st0{fill:none;stroke:#326A34;stroke-width:1.5;stroke-miterlimit:10;} </style> <path class="st0" d="M57.05,19.44c4.62,2.9,7.87,7.8,8.46,13.5c1.89,0.88,3.98,1.39,6.2,1.39c8.1,0,14.67-6.57,14.67-14.66 c0-8.1-6.57-14.67-14.67-14.67C63.68,4.99,57.17,11.44,57.05,19.44z"></path> <path class="st0" d="M50.74,48.46c8.1,0,14.67-6.57,14.67-14.67s-6.57-14.66-14.67-14.66S36.07,25.7,36.07,33.8 S42.64,48.46,50.74,48.46z"></path> <path class="st0" d="M56.96,49.46H44.51c-10.35,0-18.78,8.43-18.78,18.78v15.22l0.04,0.24l1.05,0.33 c9.88,3.09,18.47,4.12,25.53,4.12c13.8,0,21.8-3.93,22.29-4.19l0.98-0.5h0.1V68.24C75.74,57.88,67.31,49.46,56.96,49.46z"></path> <path class="st0" d="M28,34.32c2.87,0,5.54-0.84,7.8-2.26c0.72-4.69,3.23-8.79,6.82-11.58c0.01-0.27,0.04-0.55,0.04-0.82 c0-8.1-6.57-14.67-14.66-14.67c-8.1,0-14.67,6.57-14.67,14.67C13.34,27.75,19.9,34.32,28,34.32z"></path> <path class="st0" d="M46.3,48.3C41.1,45.7,36.7,41,36,36c-0.46-0.03-0.53-2.8-1-2.8l-13.22,2.12C11.42,35.32,3,43.74,3,54.1v15.22 l0.04,0.23l1.05,0.33c7.93,2.47,15,3.62,21.15,3.97v-4.6C25.24,59.18,33.2,50.2,46.3,48.3z"></path> <path class="st0" d="M75.77,69.26v4.6c6.15-0.36,13.22-1.5,21.15-3.97l1.05-0.33L98,69.32V54.1c0-10.35-8.42-18.78-18.78-18.78 L66,33.2c-0.47,0-0.54,2.77-1,2.8c-0.7,5-5.1,9.7-10.3,12.3C67.8,50.2,75.76,59.18,75.77,69.26z"></path> </svg> 