<?xml version="1.0" encoding="UTF-8"?> <!-- Generator: Adobe Illustrator 23.0.2, SVG Export Plug-In . SVG Version: 6.00 Build 0) --> <svg xmlns="http://www.w3.org/2000/svg" xmlns:xlink="http://www.w3.org/1999/xlink" id="Layer_1" x="0px" y="0px" viewBox="0 0 100 100" style="enable-background:new 0 0 100 100;" xml:space="preserve"> <style type="text/css"> .st0{fill:none;stroke:#FFFFFF;stroke-width:1.5;stroke-miterlimit:10;} .st1{fill:#FFFFFF;} </style> <path class="st0" d="M88,70.4V3.3c0-1.7-1.3-3-3-3H4.1c-1.7,0-3,1.3-3,3v84.4c0,1.7,1.3,3,3,3h57"></path> <g> <rect x="11" y="13.6" class="st0" width="11.8" height="6.2"></rect> <line class="st0" x1="27.8" y1="13.6" x2="76.6" y2="13.6"></line> <line class="st0" x1="27.8" y1="19.8" x2="76.6" y2="19.8"></line> </g> <g> <rect x="11" y="31.1" class="st0" width="11.8" height="6.2"></rect> <line class="st0" x1="27.8" y1="31.1" x2="76.6" y2="31.1"></line> <line class="st0" x1="27.8" y1="37.3" x2="76.6" y2="37.3"></line> </g> <g> <rect x="11" y="48.6" class="st0" width="11.8" height="6.2"></rect> <line class="st0" x1="27.8" y1="48.6" x2="76.6" y2="48.6"></line> <line class="st0" x1="27.8" y1="54.8" x2="76.6" y2="54.8"></line> </g> <g> <rect x="11" y="66.1" class="st0" width="11.8" height="6.2"></rect> <line class="st0" x1="27.8" y1="66.1" x2="70.2" y2="66.1"></line> <line class="st0" x1="27.8" y1="72.3" x2="61.6" y2="72.3"></line> </g> <circle class="st0" cx="75.4" cy="81.9" r="16.8"></circle> <g> <path class="st1" d="M77.7,93.6c-0.7,0-1.4-0.3-2-0.8L66,83c-0.5-0.5-0.8-1.2-0.8-2s0.3-1.4,0.8-2c0.5-0.5,1.2-0.8,2-0.8 s1.4,0.3,2,0.8l7.4,7.4l17.4-25.9c0.5-0.8,1.4-1.2,2.3-1.2c0.6,0,1.1,0.2,1.6,0.5c1.3,0.9,1.6,2.6,0.8,3.9L80,92.4 c-0.5,0.7-1.2,1.1-2.1,1.2C77.9,93.6,77.8,93.6,77.7,93.6z"></path> </g> </svg> 