<?xml version="1.0" encoding="UTF-8"?> <!-- Generator: Adobe Illustrator 23.0.2, SVG Export Plug-In . SVG Version: 6.00 Build 0) --> <svg xmlns="http://www.w3.org/2000/svg" xmlns:xlink="http://www.w3.org/1999/xlink" id="Layer_1" x="0px" y="0px" viewBox="0 0 100 100" style="enable-background:new 0 0 100 100;" xml:space="preserve"> <style type="text/css"> .st0{fill:none;stroke:#FFFFFF;stroke-width:1.5;stroke-linecap:round;stroke-linejoin:round;stroke-miterlimit:10;} .st1{fill:none;stroke:#FFFFFF;stroke-width:1.5;stroke-linecap:round;stroke-linejoin:round;} .st2{fill:none;stroke:#FFFFFF;stroke-width:1.5;stroke-linecap:round;stroke-linejoin:round;stroke-dasharray:1.9205,2.8807;} .st3{fill:none;stroke:#FFFFFF;stroke-width:1.5;stroke-linecap:round;stroke-linejoin:round;stroke-dasharray:1.9205,2.8807,1.9205,2.8807;} .st4{fill:none;stroke:#FFFFFF;stroke-width:1.5;stroke-linecap:round;stroke-linejoin:round;stroke-miterlimit:10;stroke-dasharray:2,3,2,3;} </style> <path class="st0" d="M33.8,79.6h12.5V94h0c0.1,2.2-0.2,4,3.7,4c4,0,3.6-1.8,3.7-4l0-14.4H86c0.8,0,1.5-0.5,1.9-1.2 c0.3-0.7,0.3-1.6-0.2-2.2l-8.9-11.4"></path> <path class="st0" d="M72.3,56.7l-2.5-3.1h6.9c0.8,0,1.5-0.4,1.8-1.1c0.4-0.7,0.3-1.5-0.2-2.2l-13-17.5h2.8c0.8,0,1.5-0.4,1.8-1.1 c0.4-0.7,0.3-1.5-0.1-2.1L51.7,2.9C51.4,2.3,50.7,2,50,2c0,0,0,0,0,0c-0.7,0-1.3,0.3-1.7,0.9L30.1,29.5c-0.4,0.6-0.5,1.5-0.1,2.1 c0.4,0.7,1.1,1.1,1.8,1.1h2.9L21.6,50.3c-0.5,0.6-0.5,1.5-0.2,2.2c0.3,0.7,1.1,1.1,1.8,1.1h7L12.4,76.3c-0.5,0.6-0.6,1.5-0.2,2.2 c0.3,0.7,1.1,1.2,1.9,1.2h6.2"></path> <circle class="st0" cx="27" cy="79.8" r="6.6"></circle> <circle class="st0" cx="35.6" cy="50.6" r="5.4"></circle> <circle class="st0" cx="76.5" cy="60.1" r="5.4"></circle> <circle class="st0" cx="54.4" cy="17" r="4"></circle> <g> <g> <path class="st1" d="M18,70.2c0,0,0.3,0.1,0.9,0.3"></path> <path class="st2" d="M21.7,71.4c0.9,0.3,2,0.6,3.2,0.9"></path> <path class="st3" d="M26.3,72.7c11.4,2.9,33,6.3,55.5-0.2"></path> <path class="st1" d="M83.2,72.1c0.3-0.1,0.6-0.2,1-0.3"></path> </g> </g> <path class="st4" d="M15.8,80.2c0,0,0.6,1.2,5.2,3"></path> <path class="st4" d="M23.4,62.2c0,0,30.2,7.4,47.6-7.2"></path> <path class="st4" d="M41,50.6c0,0,20.4-2,26.4-16"></path> <path class="st4" d="M29.8,39.2c0,0,25.2,1,36-16.4"></path> <path class="st4" d="M32.8,26.6c0,0,16.4,7.4,30.4-7.8"></path> <path class="st4" d="M39.2,17.2c0,0,4.8,4.6,12,1"></path> <path class="st4" d="M43.6,10.2c0.6,0,5.4,3.8,11.4-2.8"></path> </svg> 