<?xml version="1.0" encoding="UTF-8"?> <!-- Generator: Adobe Illustrator 23.0.2, SVG Export Plug-In . SVG Version: 6.00 Build 0) --> <svg xmlns="http://www.w3.org/2000/svg" xmlns:xlink="http://www.w3.org/1999/xlink" id="Layer_1" x="0px" y="0px" viewBox="0 0 100 100" style="enable-background:new 0 0 100 100;" xml:space="preserve"> <style type="text/css"> .st0{fill:none;stroke:#FFFFFF;stroke-width:1.5;stroke-miterlimit:10;} .st1{fill:none;stroke:#FFFFFF;stroke-width:1.5;stroke-linecap:round;stroke-miterlimit:10;} .st2{fill:none;stroke:#FFFFFF;stroke-width:1.5;stroke-linecap:round;stroke-linejoin:round;stroke-miterlimit:10;} </style> <path class="st0" d="M23.6,26.5V4.3c0-1.7,1.3-3,3-3h68.7c1.7,0,3,1.3,3,3v91.3c0,1.7-1.3,3-3,3H22.9"></path> <path class="st1" d="M95.9,99.1c0,0-15.2-0.5-15.2-16.5H8.5c0,0-1.5,14.4,15.7,16.4L95.9,99.1z"></path> <line class="st0" x1="23.5" y1="82.5" x2="23.5" y2="50.1"></line> <line class="st0" x1="43.5" y1="11.7" x2="76.1" y2="11.7"></line> <line class="st0" x1="81.3" y1="18.8" x2="38.4" y2="18.8"></line> <path class="st0" d="M10.1,31.2c0,0-8.3-0.8-8.3,7.2s8.3,7.2,8.3,7.2h44.5l6.9-7l-7.1-7.3C54.5,31.2,10.3,31.1,10.1,31.2z"></path> <line class="st0" x1="12.3" y1="31.5" x2="12.3" y2="45.5"></line> <polyline class="st0" points="53.3,31.2 51.7,38.5 16.9,38.5 "></polyline> <line class="st0" x1="54.3" y1="45.7" x2="51.7" y2="38.3"></line> <line class="st0" x1="29.1" y1="53.3" x2="38.5" y2="53.3"></line> <line class="st0" x1="29.1" y1="60" x2="34.5" y2="60"></line> <polyline class="st2" points="88.4,19.7 38.4,69.6 88.4,69.6 88.4,19.7 "></polyline> <g> <line class="st0" x1="49" y1="65.6" x2="49" y2="69.6"></line> <line class="st0" x1="55.7" y1="65.6" x2="55.7" y2="69.6"></line> <line class="st0" x1="62.4" y1="65.6" x2="62.4" y2="69.6"></line> <line class="st0" x1="69" y1="65.6" x2="69" y2="69.6"></line> <line class="st0" x1="76.1" y1="65.3" x2="76.1" y2="69.3"></line> <line class="st0" x1="82.8" y1="65.3" x2="82.8" y2="69.3"></line> </g> <g> <line class="st0" x1="84" y1="64.3" x2="88" y2="64.3"></line> <line class="st0" x1="84" y1="57.6" x2="88" y2="57.6"></line> <line class="st0" x1="84" y1="50.9" x2="88" y2="50.9"></line> <line class="st0" x1="84" y1="44.3" x2="88" y2="44.3"></line> <line class="st0" x1="84" y1="37.6" x2="88" y2="37.6"></line> <line class="st0" x1="84" y1="30.9" x2="88" y2="30.9"></line> </g> <polygon class="st2" points="78.1,44.6 78.1,59.4 62.8,59.4 "></polygon> </svg> 